<svg width="270" height="57" viewBox="0 0 270 57" fill="none" xmlns="http://www.w3.org/2000/svg">
<path d="M84.1858 19.8979H75.7285V14.6006H99.5935V19.8979H91.1362V42.5327H84.1858V19.8979Z" fill="#231F20"/>
<path d="M107.443 30.9692H122.228V35.8744H107.443V30.9692ZM110.734 14.5928H119.045L128.694 42.5249H121.344L117.323 28.3782C116.469 25.5873 115.647 22.2812 114.824 19.3673H114.632C113.886 22.3197 113.071 25.5873 112.218 28.3782L108.181 42.5249H101.077L110.734 14.5928Z" fill="#231F20"/>
<path d="M143.133 37.4507C148.346 37.4507 151.867 35.1288 151.867 28.4475C151.867 21.7662 148.346 19.6827 143.133 19.6827H141.811V37.4507H143.133ZM134.868 14.6006H143.556C152.944 14.6006 158.987 18.8446 158.987 28.4475C158.987 38.0504 152.944 42.5327 143.941 42.5327H134.868V14.6006Z" fill="#231F20"/>
<path d="M174.318 14.6006H167.367V42.5327H174.318V14.6006Z" fill="#231F20"/>
<path d="M193.621 30.8155L198.427 26.7714L208.237 42.5327H200.464L193.629 30.8155H193.621ZM194.329 27.4634C197.981 27.4634 199.949 26.041 199.949 23.2962C199.949 20.5514 197.988 19.6134 194.329 19.6134H190.777V27.4634H194.329ZM183.826 14.6006H194.89C201.41 14.6006 206.753 16.6534 206.753 23.2962C206.753 29.939 201.41 32.4762 194.89 32.4762H190.769V42.5327H183.826V14.6006Z" fill="#231F20"/>
<path d="M219.089 30.9692H233.874V35.8744H219.089V30.9692ZM222.379 14.5928H230.691L240.34 42.5249H232.989L228.968 28.3782C228.115 25.5873 227.292 22.2812 226.47 19.3673H226.277C225.532 22.3197 224.717 25.5873 223.863 28.3782L219.827 42.5249H212.723L222.372 14.5928H222.379Z" fill="#231F20"/>
<path d="M245.903 14.6005H253.023L261.042 28.4935L264.079 34.6289H264.271C263.94 31.6765 263.379 27.7631 263.379 24.4724V14.6005H269.999V42.5326H262.879L254.86 28.6011L251.823 22.4965H251.639C251.962 25.5796 252.523 29.3238 252.523 32.6145V42.5249H245.903V14.5928V14.6005Z" fill="#231F20"/>
<path d="M44.7143 51.4265C44.8035 51.3866 44.8527 51.282 44.8188 51.1867C44.785 51.0852 44.6774 51.0298 44.5759 51.0637H44.5636C44.5636 51.0637 36.9798 53.7054 36.2879 53.9299C35.5959 54.1605 27.9291 56.5377 27.9291 56.5377H27.9168C27.8153 56.5716 27.76 56.6823 27.7907 56.7868C27.8215 56.8853 27.9199 56.9406 28.0152 56.9191C28.7318 56.7622 31.4411 56.2763 36.5031 54.6095C41.5651 52.9458 44.0408 51.7248 44.7112 51.4265" fill="#231F20"/>
<path d="M51.3541 44.7168C51.3541 44.7168 51.3479 44.7168 51.3448 44.7168C51.3172 44.7168 45.1357 44.9567 32.8621 49.2837C28.4859 50.9597 20.6007 53.9674 14.6653 53.6814H14.6592C14.5484 53.6691 14.447 53.746 14.4316 53.8598C14.4162 53.9736 14.4962 54.0812 14.6099 54.0966C14.6653 54.1058 16.6212 54.4687 22.9287 53.2878C27.8277 52.3682 33.2649 50.3846 33.2649 50.3846C33.2649 50.3846 39.5417 48.0228 39.9169 47.8967C47.2362 45.4088 51.3571 45.1689 51.3694 45.1658C51.4924 45.1597 51.5847 45.0551 51.5816 44.9321C51.5755 44.8121 51.4771 44.7168 51.3602 44.7168" fill="#231F20"/>
<path d="M54.3251 38.855C54.3066 38.855 48.1375 38.1938 42.3958 39.5961C39.053 40.2942 35.6916 41.4536 35.6916 41.4536C34.9628 41.7273 33.8895 41.8903 32.5824 41.8319C30.3959 41.7335 26.6071 42.9113 23.9346 45.4116C23.2119 46.0881 21.9787 46.9677 21.1145 47.1645C13.3862 49.2219 7.81677 47.878 7.80447 47.8749C7.68454 47.8472 7.56767 47.921 7.53999 48.0441C7.51231 48.164 7.58612 48.287 7.70606 48.3147C7.85368 48.3485 13.5277 49.7201 20.9085 48.164C21.1822 48.1086 21.462 48.0656 21.7419 48.0441C23.6394 47.9057 24.9864 48.0256 26.318 47.9795C29.0612 47.8811 30.9248 46.7924 32.8069 45.0979C33.6158 44.366 34.6983 43.6402 35.5348 43.1204C36.5681 42.3947 40.2677 41.0661 42.4666 40.4511C48.6665 38.6028 52.566 39.2148 54.282 39.307C54.2882 39.307 54.2974 39.307 54.3066 39.307C54.4173 39.307 54.5127 39.2209 54.525 39.1041C54.5373 38.981 54.4481 38.8703 54.3281 38.858" fill="#231F20"/>
<path d="M55.8898 33.2487C55.8744 33.2456 49.5515 31.6464 42.2568 33.141C40.8791 33.424 39.3752 33.75 36.8012 34.5434C35.5464 34.9309 35.0359 35.0939 33.8704 35.1308C32.7048 35.1677 31.9329 35.1308 30.1062 35.5429C27.8858 36.0442 25.8684 37.0252 23.2328 39.1902C23.0145 39.3717 21.5598 40.6787 19.118 41.1584C9.95965 43.4065 3.2462 41.1892 3.2339 41.183C3.11703 41.1461 2.99402 41.2076 2.95404 41.3276C2.91714 41.4475 2.97865 41.5736 3.09551 41.6105C11.3405 43.9847 17.7157 42.3486 20.0652 42.0441C21.7536 41.7028 23.8878 42.3732 26.2005 42.1056C29.5096 41.7243 30.9242 40.2112 33.037 38.2246C34.427 36.9422 35.5434 36.3117 36.017 36.1395C39.2092 34.8079 42.4383 34.0575 42.4383 34.0575C50.2711 32.2461 55.7791 33.6884 55.7883 33.6915C55.8037 33.6946 55.8221 33.6977 55.8375 33.6977C55.939 33.6977 56.0282 33.6269 56.0528 33.5224C56.0805 33.4024 56.0066 33.2825 55.8867 33.2517" fill="#231F20"/>
<path d="M56.2586 27.7472C56.2002 27.7256 50.354 25.6621 42.0321 26.9414C39.8455 27.1936 36.4996 28.2577 35.4232 28.353C34.7343 28.436 33.8302 28.4883 32.7046 28.4453C30.7241 28.3684 28.6083 29.1803 26.9045 30.106C25.7697 30.6872 24.5826 31.4837 23.2356 32.5908C23.0173 32.7692 21.249 34.15 20.1542 34.476C10.8359 37.4529 3.08913 35.7061 1.04711 35.008C0.930243 34.9681 0.80415 35.0296 0.764171 35.1464C0.724192 35.2633 0.785699 35.3925 0.899486 35.4324C1.78826 35.5708 8.42791 38.3079 19.3884 35.8046C20.9814 35.4201 22.3469 35.4939 22.7467 35.537C24.1705 35.6877 25.822 35.8353 27.7195 35.2418C29.9799 34.5344 31.2807 33.2766 33.0398 31.6252C33.5042 31.1885 34.7466 29.9337 37.3053 29.1065C38.4278 28.7436 39.5626 28.4176 40.7128 28.1439C49.17 26.068 55.4621 27.9717 56.1048 28.1716C56.1294 28.1808 56.1571 28.1869 56.1817 28.1869C56.2709 28.1869 56.357 28.1316 56.3908 28.0393C56.4339 27.9225 56.3755 27.7933 56.2617 27.7502" fill="#231F20"/>
<path d="M19.802 29.2417C20.5954 29.0203 21.6564 28.8357 22.7482 28.9741C24.4888 29.1586 26.6046 29.4139 28.9972 28.0761C30.5626 27.1997 31.8142 25.8711 32.8137 25.1207C34.3145 23.9982 36.5349 23.1925 38.9798 22.8081C41.8122 22.3622 44.2663 21.947 45.9485 21.6056C50.3893 20.7076 54.8546 22.2945 55.4482 22.4114C55.5343 22.4267 55.6204 22.356 55.6542 22.2668C55.7004 22.15 55.645 22.0146 55.5282 21.9747C53.1847 21.1628 50.1555 20.7784 49.8726 20.7292C48.4918 20.4862 47.1386 20.1172 45.8101 19.8711C43.2237 19.3883 40.5236 18.7579 35.2924 20.0926C29.5262 21.5595 26.1987 23.5277 23.5293 25.6866C23.151 25.9941 21.3027 27.6856 18.621 28.4667C7.69746 31.7788 0.304348 29.2079 0.292047 29.2048C0.175184 29.1648 0.0490943 29.2263 0.0121902 29.3462C-0.0277891 29.4631 0.0337213 29.5923 0.150584 29.6323C8.10648 32.0372 16.6651 30.195 19.7989 29.2448" fill="#231F20"/>
<path d="M0.5898 24.1148C0.642081 24.1302 5.62106 25.3203 11.5534 24.5915C13.743 24.3332 14.3796 24.4992 17.6702 24.1548C22.3939 23.6597 24.1838 22.6479 26.8378 21.5653C30.6574 20.0092 33.5574 18.4316 40.4216 17.1953C43.7429 16.5987 45.665 15.3132 49.217 15.47C50.8223 15.5469 53.1934 16.2143 53.1996 16.2173C53.2242 16.2266 53.2457 16.2296 53.2703 16.2296C53.3626 16.2296 53.4487 16.1712 53.4794 16.0759C53.5194 15.959 53.4579 15.8298 53.341 15.7899C53.3164 15.7806 43.0848 12.4347 31.0325 15.2025C28.7722 15.6423 24.7681 17.0784 19.0603 19.5479C11.7348 22.7155 12.2638 23.5797 9.04697 24.001C4.27713 24.4223 0.709737 23.6812 0.703586 23.6812C0.583648 23.6504 0.463718 23.7212 0.432964 23.8411C0.402211 23.961 0.47294 24.084 0.592878 24.1148" fill="#231F20"/>
<path d="M2.15827 18.5671C2.17672 18.5671 4.67697 18.9023 8.26281 18.6962C9.77587 18.6839 11.6118 19.2836 14.8133 18.9607C18.9434 18.5455 22.4493 16.9033 24.2392 15.6885C26.4934 14.157 28.1233 12.4533 32.5118 11.0386C41.8855 7.88641 48.5989 9.50096 48.6081 9.50096C48.6235 9.50403 48.642 9.50711 48.6573 9.50711C48.7588 9.50711 48.848 9.43638 48.8726 9.33182C48.9003 9.21188 48.8234 9.08887 48.7065 9.06426C48.6666 9.05504 38.9639 7.09297 27.8404 11.4538C24.6974 12.6624 21.1054 13.5327 19.1926 14.0156C15.579 14.9259 13.2725 15.5102 10.4648 17.0786C9.60981 17.5553 9.3238 17.8443 8.5642 17.9212C4.08036 18.3733 2.21977 18.1242 2.21362 18.1211C2.09368 18.1058 1.98297 18.1949 1.9676 18.318C1.95222 18.441 2.03833 18.5548 2.16134 18.5671" fill="#231F20"/>
<path d="M5.0965 12.7334C5.0965 12.7334 5.10265 12.7334 5.10572 12.7334C5.1334 12.7334 11.3148 12.4935 23.5885 8.16648C27.9647 6.49043 35.8498 3.48275 41.7852 3.76875H41.7914C41.9021 3.78413 42.0036 3.70417 42.019 3.59039C42.0343 3.4766 41.9544 3.36896 41.8437 3.35359C41.7883 3.34436 39.8324 2.98147 33.5249 4.1624C28.6259 5.08192 23.1887 7.06551 23.1887 7.06551C23.1887 7.06551 16.9119 9.42737 16.5398 9.55346C9.22052 12.0414 5.09957 12.2813 5.08726 12.2844C4.96425 12.2905 4.872 12.3951 4.87507 12.5181C4.88123 12.638 4.97964 12.7334 5.0965 12.7334Z" fill="#231F20"/>
<path d="M19.9444 2.83649C25.0064 1.17274 27.7157 0.686837 28.4323 0.526919C28.5276 0.505392 28.626 0.563821 28.6568 0.659156C28.6875 0.763718 28.6322 0.871355 28.5307 0.905184H28.5184C28.5184 0.905184 20.8516 3.2855 20.1596 3.51615C19.4677 3.74064 11.8839 6.37928 11.8839 6.37928H11.8716C11.7701 6.41618 11.6625 6.36083 11.6287 6.25934C11.5979 6.16401 11.644 6.05945 11.7332 6.01947C12.4067 5.72116 14.8793 4.50025 19.9413 2.83649" fill="#231F20"/>
</svg>
